<svg id="Layer_1" data-name="Layer 1" xmlns="http://www.w3.org/2000/svg" viewBox="0 0 1372.7 158.66"><defs><style>.cls-1{fill:#0a4c61;}</style></defs><title>header</title><path class="cls-1" d="M26.78,2.72V65.14h78.31V2.72h27V155.93h-27v-64H26.78v64H0V2.72Z"/><path class="cls-1" d="M184.3,155.93H154.79L208.58,19.75C214.26,5.45,224.7,0,240.81,0c15.89,0,26.33,5.45,31.78,19.75l51.75,136.18H294.61L248.08,32.68a7.3,7.3,0,0,0-7.49-5.22c-3.63,0-6.13,1.59-7.72,5.22Z"/><path class="cls-1" d="M460.75,2.72V29.51H401.51c-29.51,0-42.45,14.75-42.45,49.93,0,35,12.71,49.71,42.45,49.71h59.24v26.78H401.51c-44.72,0-69.23-25.19-69.23-76.49,0-51.52,24.74-76.72,69.23-76.72Z"/><path class="cls-1" d="M519.53,2.72V67.64h14.75c26.33,0,30.64-2.27,39.27-19.07L596.93,2.72h28.82L601.69,50.39C594.88,64,587.62,72.86,575.14,78.31c14.3,3.86,21.33,11.8,30.41,29.5l24.74,48.12h-30L577,110.54c-8.4-16.35-13.84-18.62-42.67-18.62H519.53v64H492.74V2.72Z"/><path class="cls-1" d="M740.82,2.72V67.64h14.75c26.33,0,30.64-2.27,39.27-19.07L818.22,2.72H847L823,50.39C816.17,64,808.91,72.86,796.43,78.31c14.3,3.86,21.33,11.8,30.41,29.5l24.74,48.12h-30l-23.38-45.39c-8.39-16.35-13.84-18.62-42.67-18.62H740.82v64H714V2.72Z"/><path class="cls-1" d="M997.07,2.72V29.51H920.35c-16.12,0-23.15,7.49-23.15,19.29,0,12.48,7.94,18.16,23.38,18.16h75.35V91.24h-76c-15.44,0-23.38,6.13-23.38,18.62,0,12,7.49,19.29,23.15,19.29h77.62v26.78H919.67c-36.32,0-51.07-17.93-51.07-41.76,0-17.48,7.94-29.28,22-35.18-14.3-5.9-21.57-17.71-21.57-34.5,0-24.52,15.21-41.77,51.3-41.77Z"/><path class="cls-1" d="M1047.22,155.93h-29.5l53.79-136.18C1077.18,5.45,1087.62,0,1103.74,0c15.89,0,26.33,5.45,31.78,19.75l51.75,136.18h-29.74L1111,32.68a7.3,7.3,0,0,0-7.49-5.22c-3.63,0-6.13,1.59-7.72,5.22Z"/><path class="cls-1" d="M1236.51,155.93h-26.78V33.37c0-20,11.35-33.37,35.18-33.37,21.34,0,30.87,10.9,37.23,28.37l44.71,97.83c1.81,3.63,4.77,6.35,9.76,6.35,5.67,0,9.08-3.4,9.08-8.62V2.72h27V125.06c0,20.2-11.58,33.6-35.18,33.6-21.34,0-31.1-10.9-37.45-28.38l-44.72-97.82c-2-4.54-4.76-6.58-9.53-6.58-6.13,0-9.31,3.4-9.31,8.85Z"/></svg>