<svg id="Layer_1" data-name="Layer 1" xmlns="http://www.w3.org/2000/svg" viewBox="0 0 158.91 158.91"><defs><style>.cls-1{font-size:32.27px;}.cls-1,.cls-3{fill:#fffafc;font-family:NasalizationRg-Regular, Nasalization;}.cls-2{fill:#f2a71e;}.cls-3{font-size:30.35px;}</style></defs><title>hackkean(sticker)</title><text class="cls-1" transform="translate(36.7 134.19) rotate(28.23)">2</text><text class="cls-1" transform="translate(61.08 146.49) rotate(5.26)">0</text><text class="cls-1" transform="translate(88.2 147.56) rotate(-11.79)">1</text><text class="cls-1" transform="translate(102.07 145.13) rotate(-28.77)">8</text><path class="cls-2" d="M115.1,106a75.36,75.36,0,0,0-19-3.88,8.26,8.26,0,0,0,.3-.92c7.41-.66,22.45,1.39,22.45,1.39a91.79,91.79,0,0,0-20.11-2.46c.82-.37,1.75-.8,2.72-1.28,7.63-.47,17.35,0,17.35,0a100.94,100.94,0,0,0-15.45-1c1-.51,1.93-1,2.8-1.58,5.13-.43,9.8-.54,9.8-.54-3.28-.21-6.2-.23-8.74-.15A7.72,7.72,0,0,0,109.86,93c1.46-3.24.86-12.91,1.13-16.82s-.67-4.11-.67-4.11a61.63,61.63,0,0,0,3.58-6.36,12,12,0,0,0,.86-7.81s3.84-3.91,1.36-12-8.25-3.78-10.33-2.29S97,51.83,96.65,53s-.9,2-1.89,2.09-6.82-1.68-12.85-1.69h-.07c-6,0-11.86,1.79-12.85,1.69S67.5,54.22,67.1,53s-7-7.84-9.14-9.34S50.11,37.92,47.63,46s1.36,12,1.36,12a12,12,0,0,0,.86,7.81,62.36,62.36,0,0,0,3.57,6.36s-.92.2-.66,4.11S52.43,89.79,53.89,93a7.72,7.72,0,0,0,2.65,2.57c-2.54-.08-5.47-.06-8.75.15,0,0,4.68.11,9.81.54.87.54,1.83,1.07,2.79,1.58a100.75,100.75,0,0,0-15.44,1s9.72-.47,17.35,0c1,.48,1.9.91,2.72,1.28a91.79,91.79,0,0,0-20.11,2.46s15-2,22.44-1.39a8.27,8.27,0,0,0,.31.92,75.36,75.36,0,0,0-19,3.88s12.83-3,19.39-3a9,9,0,0,0,.52.91A74.48,74.48,0,0,0,50,110.32s12.69-4.8,19.1-5.62a7.29,7.29,0,0,0,2,1.85,17.1,17.1,0,0,0,2.28,7.38c2,3.46,7.38,4,8.38,4.11H82c1-.08,6.35-.65,8.38-4.11a17.25,17.25,0,0,0,2.28-7.38,7.27,7.27,0,0,0,2-1.85c6.41.82,19.11,5.62,19.11,5.62a74.62,74.62,0,0,0-18.54-6.43c.18-.29.36-.59.52-.91C102.27,103,115.1,106,115.1,106Zm-18.46-6c0-.16,0-.32,0-.48v-.13c.53-.08,1.08-.16,1.67-.22Zm3.92-2c-1.82.1-3.13.25-3.89.35,0-.25-.06-.49-.11-.72a58.37,58.37,0,0,1,6.57-1C102.37,97,101.51,97.48,100.56,98ZM60.62,96.57a57.8,57.8,0,0,1,6.56,1c0,.23-.08.47-.1.72-.76-.1-2.08-.25-3.9-.35C62.23,97.48,61.38,97,60.62,96.57Zm6.44,2.76s0,.09,0,.13,0,.32,0,.48l-1.71-.83C66,99.17,66.54,99.25,67.06,99.33Zm22.33,14.4c-1.35,2.13-5.73,3.41-7.52,3.47s-6.16-1.34-7.52-3.47a15.18,15.18,0,0,1-2.45-6.86,9.67,9.67,0,0,0,1.87.29,10.81,10.81,0,0,0,2,5.13c1.58,1.91,5.3,1.83,6.06,1.8s4.49.11,6.07-1.8a10.81,10.81,0,0,0,2-5.13,9.67,9.67,0,0,0,1.87-.29A15.19,15.19,0,0,1,89.39,113.73Zm-9.33-13.12a3.43,3.43,0,0,0-3-2l-.13,0c-.3-.28-.52-.57-.5-.7s.12-.19.87-.31a5.67,5.67,0,0,1,.9-.08,4.88,4.88,0,0,1,2.6.78,2.78,2.78,0,0,0,1,.41h.12a2.82,2.82,0,0,0,1-.41,4.87,4.87,0,0,1,2.59-.78,5.8,5.8,0,0,1,.91.08c.74.12.86.3.87.3s-.21.43-.5.71l-.14,0a3.41,3.41,0,0,0-3,2,1.31,1.31,0,0,0,.45,1.13c-.17.25-.4.55-.64.85a1.57,1.57,0,0,1-.87.09c-.25-.11-.51-.84-.67-1.41-.06-.15-.12-.16-.17,0-.17.57-.42,1.3-.68,1.41a1.58,1.58,0,0,1-.87-.09c-.24-.3-.46-.6-.64-.85A1.32,1.32,0,0,0,80.06,100.61Zm-4.12,6.55.78.06a9,9,0,0,0,2,2.14l.1.84.57-.39.72.39.38-.44.71.49.24-.49.43.5.43-.5.24.49.72-.49.38.44.72-.39.57.39.09-.84a9,9,0,0,0,2-2.14l.78-.06.5,0c0,.45-.45,3.49-2,4.36,0,0-1-.34-1.24-.84,0,0-.14.89-.76.84s-.72-.39-.72-.39-.76.2-.91-.1a1.37,1.37,0,0,1-.72.1s-.09-.07-.14-.05-.14.05-.14.05a1.4,1.4,0,0,1-.72-.1c-.14.3-.9.1-.9.1s-.1.34-.72.39-.76-.84-.76-.84c-.19.5-1.24.84-1.24.84-1.51-.87-1.9-3.91-2-4.36Zm19-8.23a20.62,20.62,0,0,1-4.47,2.18s5.4-.79,4.28.13a20.57,20.57,0,0,1-4.59,2.06s4-.53,3.41.33-3.1,1.85-3.1,1.85,2.36.14,1.68.6-8.64.73-9.86-1.17a25.19,25.19,0,0,0,2.6-3.2c.57-.92.88-1.72,1.52-2.09a4.76,4.76,0,0,0,1-.85h0a1.76,1.76,0,0,0,.42-.69,15,15,0,0,1,1.53-2.18,5,5,0,0,0-1.81,1.43A2.65,2.65,0,0,0,86.51,97a6,6,0,0,0-1-.08c-2.06,0-3,1.12-3.64,1.18S80.3,96.9,78.23,96.9a5.9,5.9,0,0,0-1,.08,2.59,2.59,0,0,0-1.06.35,5.05,5.05,0,0,0-1.82-1.43,13.57,13.57,0,0,1,1.53,2.18,1.92,1.92,0,0,0,.43.69,4.76,4.76,0,0,0,1,.85c.64.37.94,1.17,1.52,2.09a25.19,25.19,0,0,0,2.6,3.2c-1.22,1.9-9.18,1.63-9.86,1.17s1.68-.6,1.68-.6-2.55-1-3.11-1.85,3.42-.33,3.42-.33a20.79,20.79,0,0,1-4.6-2.06c-1.12-.92,4.29-.13,4.29-.13a20.62,20.62,0,0,1-4.47-2.18c-1.74-1.26,4.1.33,4.1.33s-2.24-1.33-3.42-1.86,1.74-1.32,1.74-1.32-1.06-1.13-1.8-1.19a1.66,1.66,0,0,0-1.17.57c-1.13-3.37-2.53-5.24-4.38-6.27s-4.35-5.66-4.35-5.66c.8,4.5,3.63,6,5.37,7.48,1.3,1.13,2.27,4,2.69,5.39-.06.12-.11.24-.16.37a57.79,57.79,0,0,0-8.25-1,17.58,17.58,0,0,1-4.3-3.35c-1-1.26-1-4.64-1.19-11.39s0-8.28.26-8.88a44.83,44.83,0,0,1,2.85-3.64A32.24,32.24,0,0,0,54.35,63c.66-.34,4.51.59,4.51.59a12.19,12.19,0,0,0-2.92-3.71c.53-.86,2.85-1.52,2.85-1.52a5.22,5.22,0,0,0-3-1.26,5.5,5.5,0,0,1,2.12-3.31c-1.59-.86-5-.13-5-.13A11.29,11.29,0,0,1,54,51.17,4,4,0,0,0,51.9,51a5,5,0,0,1,2.78-4.24s-2.71-1.53-4.37-.66-1.59,3.37-1.06,6.62,3.18,6.56,4,8.15S51.83,64,51.83,64a28.85,28.85,0,0,1,2.65,2.91c.86,1.2-.06,3.91-.33,3.91a19.87,19.87,0,0,1-3.84-6,3.19,3.19,0,0,1,1.19-3.64,2.6,2.6,0,0,1-1.19-3.38c-2.38-2.39-3-5.63-2.38-9.94s3.37-4.83,5.36-4.53,7.85,5.16,10.24,8.84a35,35,0,0,1,3.67,8.25A12.18,12.18,0,0,1,74,56c4-.91,7.39,2.57,7.88,3.11l0,0,0,0c.49-.54,3.84-4,7.88-3.11a12.18,12.18,0,0,1,6.76,4.48,35,35,0,0,1,3.67-8.25c2.39-3.68,8.25-8.55,10.24-8.84s4.76.23,5.36,4.53,0,7.55-2.38,9.94a2.59,2.59,0,0,1-1.2,3.38,3.19,3.19,0,0,1,1.2,3.64,19.64,19.64,0,0,1-3.85,6c-.26,0-1.19-2.71-.33-3.91A28.85,28.85,0,0,1,111.91,64s-2.18-1.52-1.39-3.11,3.45-4.91,4-8.15.59-5.76-1.06-6.62-4.38.66-4.38.66A5,5,0,0,1,111.85,51a4,4,0,0,0-2.12.13,11.29,11.29,0,0,1,1.19,2.52s-3.45-.73-5,.13A5.45,5.45,0,0,1,108,57.13a5.21,5.21,0,0,0-3,1.26s2.32.66,2.85,1.52a12,12,0,0,0-2.92,3.71s3.84-.93,4.51-.59a32.9,32.9,0,0,0-2.46,5.43,42.71,42.71,0,0,1,2.85,3.64c.27.6.47,2.12.27,8.88s-.2,10.13-1.19,11.39a17.5,17.5,0,0,1-4.31,3.35,57.8,57.8,0,0,0-8.24,1c0-.13-.1-.25-.16-.37.41-1.39,1.39-4.26,2.69-5.39,1.74-1.53,4.57-3,5.37-7.48,0,0-2.4,4.57-4.36,5.66s-3.24,2.9-4.37,6.27a1.66,1.66,0,0,0-1.17-.57c-.75.06-1.8,1.19-1.8,1.19s2.92.79,1.74,1.32-3.42,1.86-3.42,1.86S96.68,97.67,94.94,98.93Z" transform="translate(-2.42 -0.18)"/><path class="cls-2" d="M72.87,78.71v0c-.72-1.36-2.61-2.18-5.1-2.25h-.7c-1,0-1.89.06-2.56.06A2.51,2.51,0,0,1,63,76.17l1.82,2.59c.6.83,1.43,3.31,4.87,3.31a15.19,15.19,0,0,1,2.69.17c-1.1.28-5.18,1.11-7.85-.54,0,0,3.11,3.12,9,.93A4.22,4.22,0,0,1,75.18,85c.1.26.18.37.24.37.28,0,0-2.59-.7-3.74A31.71,31.71,0,0,1,72.87,78.71Zm-3.22,2.9a3.24,3.24,0,0,1-2.88-4.73h1a9.59,9.59,0,0,1,1.11.09,1.6,1.6,0,1,0,2.39,1.39,1.92,1.92,0,0,0-.07-.48.86.86,0,1,1-1.49-.76,4.11,4.11,0,0,1,2.78,1.77c.08.16.17.31.26.47A3.24,3.24,0,0,1,69.65,81.61Z" transform="translate(-2.42 -0.18)"/><path class="cls-2" d="M90.29,82.63c5.85,2.19,9-.93,9-.93-2.67,1.65-6.75.82-7.86.54a15.33,15.33,0,0,1,2.69-.17c3.45,0,4.28-2.48,4.87-3.31s1.82-2.59,1.82-2.59a2.49,2.49,0,0,1-1.53.32c-.68,0-1.53-.06-2.56-.06H96c-2.48.07-4.37.89-5.1,2.25v0A30.34,30.34,0,0,1,89,81.61c-.74,1.15-1,3.74-.7,3.74,0,0,.13-.11.23-.37A4.22,4.22,0,0,1,90.29,82.63Zm1-3.73a4.09,4.09,0,0,1,2.78-1.77.86.86,0,0,1-.65,1.44.87.87,0,0,1-.84-.68,1.55,1.55,0,0,0-.07.48A1.6,1.6,0,1,0,94.88,77,10,10,0,0,1,96,76.89h1a3.13,3.13,0,0,1,.37,1.49,3.24,3.24,0,0,1-6.32,1Z" transform="translate(-2.42 -0.18)"/><text class="cls-3" transform="translate(27.17 86.75) rotate(-85.65)">H</text><text class="cls-3" transform="translate(28.49 65.08) rotate(-61.21)">A</text><text class="cls-3" transform="translate(38.83 46.04) rotate(-39.25)">C</text><text class="cls-3" transform="translate(54 33.31) rotate(-17.1)">K</text><text class="cls-3" transform="translate(73.94 28.01) rotate(-1.59)"> </text><text class="cls-3" transform="translate(81.4 26.81) rotate(13.83)">K</text><text class="cls-3" transform="matrix(0.81, 0.59, -0.59, 0.81, 101.4, 31.6)">E</text><text class="cls-3" transform="matrix(0.51, 0.86, -0.86, 0.51, 117.95, 43.13)">A</text><text class="cls-3" transform="translate(130.02 62.62) rotate(86.15)">N</text></svg>